<svg width="42" height="42" viewBox="0 0 42 42" fill="none" xmlns="http://www.w3.org/2000/svg">
<path d="M16.4978 9.97647e-08C19.6337 -0.000344678 22.7048 0.89296 25.3513 2.57526C27.9978 4.25757 30.11 6.6592 31.4406 9.49882C32.7713 12.3384 33.2651 15.4984 32.8643 18.6086C32.4636 21.7188 31.1848 24.6504 29.1778 27.06L40.5578 38.44C40.7553 38.6233 40.8996 38.8566 40.9756 39.115C41.0517 39.3735 41.0566 39.6478 40.9898 39.9088C40.9231 40.1699 40.7872 40.4081 40.5964 40.5984C40.4056 40.7886 40.167 40.9239 39.9058 40.99C39.6451 41.0568 39.3711 41.0522 39.1128 40.9765C38.8545 40.9008 38.6213 40.757 38.4378 40.56L27.0578 29.18C25.0215 30.8755 22.6068 32.0557 20.0179 32.6206C17.429 33.1856 14.7421 33.1187 12.1845 32.4257C9.62697 31.7326 7.27393 30.4338 5.32446 28.6391C3.375 26.8444 1.88645 24.6065 0.984737 22.1148C0.083024 19.6232 -0.205328 16.951 0.144073 14.3243C0.493474 11.6977 1.47035 9.19377 2.99207 7.02447C4.51378 4.85517 6.53557 3.08428 8.88642 1.86158C11.2373 0.63888 13.848 0.000349943 16.4978 9.97647e-08ZM2.99782 16.5C2.99782 18.2728 3.34701 20.0283 4.02545 21.6662C4.70389 23.3041 5.69829 24.7924 6.95188 26.0459C8.20547 27.2995 9.6937 28.2939 11.3316 28.9724C12.9695 29.6508 14.725 30 16.4978 30C18.2707 30 20.0262 29.6508 21.6641 28.9724C23.3019 28.2939 24.7902 27.2995 26.0438 26.0459C27.2974 24.7924 28.2918 23.3041 28.9702 21.6662C29.6486 20.0283 29.9978 18.2728 29.9978 16.5C29.9978 12.9196 28.5755 9.4858 26.0438 6.95406C23.512 4.42232 20.0782 3 16.4978 3C12.9174 3 9.48362 4.42232 6.95188 6.95406C4.42014 9.4858 2.99782 12.9196 2.99782 16.5Z" fill="#6D6666"/>
</svg>
